Coordinates
version=1
nRows=17
nColumns=24
inDegrees=yes

Units are S.I. units (second, meters, Newtons, ...)
Angles are in degrees.

endheader
time	pelvis_tilt	pelvis_list	pelvis_rotation	pelvis_tx	pelvis_ty	pelvis_tz	hip_flexion_r	hip_adduction_r	hip_rotation_r	knee_angle_r	ankle_angle_r	subtalar_angle_r	mtp_angle_r	hip_flexion_l	hip_adduction_l	hip_rotation_l	knee_angle_l	ankle_angle_l	subtalar_angle_l	mtp_angle_l	lumbar_extension	lumbar_bending	lumbar_rotation
      7.33000000	      2.89414526	      0.73945156	      6.54445704	      2.48865253	      0.89168458	     -0.23420142	      0.74154997	      5.19763924	      1.93279975	    -10.71820489	     14.32085221	     -1.70152252	      0.00000000	     24.75196328	      2.19728099	     -3.10335025	    -74.49770532	     -2.06590854	     -5.02975296	      0.00000000	    -21.16253150	      1.27579173	     -6.82201095
      7.34000000	      2.64074640	      1.13630256	      6.06628714	      2.49905395	      0.89205786	     -0.23383613	     -0.05626618	      4.83066858	      2.37727582	    -10.14801328	     14.66572464	     -1.73205546	      0.00000000	     25.85621372	      2.65421783	     -3.48160385	    -72.67633483	     -0.19669731	     -4.83217880	      0.00000000	    -21.06923831	      0.67513249	     -6.47269515
      7.35000000	      2.38850842	      1.51965952	      5.56387689	      2.50944008	      0.89220472	     -0.23348342	     -0.81533371	      4.47311896	      2.94873936	     -9.64020644	     15.00849297	     -1.89329351	      0.00000000	     26.83141094	      3.06727007	     -3.86435113	    -70.50829034	      1.36773635	     -4.97839770	      0.00000000	    -20.99071689	      0.09115590	     -6.09199106
      7.36000000	      2.13733570	      1.86459468	      5.05276369	      2.51982570	      0.89211132	     -0.23316871	     -1.53290493	      4.14809021	      3.60124650	     -9.19867196	     15.36028808	     -2.14452137	      0.00000000	     27.67690969	      3.41995298	     -4.21614378	    -68.00644444	      2.66864651	     -5.38716877	      0.00000000	    -20.91878845	     -0.43996596	     -5.71979075
      7.37000000	      1.89841909	      2.16221744	      4.52495497	      2.53022194	      0.89181113	     -0.23288813	     -2.22968244	      3.86277926	      4.35112281	     -8.80936269	     15.69736840	     -2.48303363	      0.00000000	     28.37073654	      3.70766446	     -4.51724426	    -65.16890032	      3.73142534	     -5.97628282	      0.00000000	    -20.86792445	     -0.91140712	     -5.30597665
      7.38000000	      1.67755175	      2.40462107	      3.97418349	      2.54065281	      0.89133263	     -0.23266758	     -2.91728264	      3.61910706	      5.16719091	     -8.46596587	     16.02346879	     -2.86457559	      0.00000000	     28.89471864	      3.92524443	     -4.75869983	    -61.99237203	      4.57248645	     -6.67056296	      0.00000000	    -20.83516899	     -1.30033486	     -4.86560978
      7.39000000	      1.46456104	      2.59599928	      3.41429272	      2.55114563	      0.89068421	     -0.23250145	     -3.59458589	      3.40926099	      5.98806134	     -8.15723986	     16.35154325	     -3.21552086	      0.00000000	     29.24973634	      4.08677066	     -4.91671692	    -58.47501418	      5.19588744	     -7.41780950	      0.00000000	    -20.80635780	     -1.61718102	     -4.42557761
      7.40000000	      1.27166039	      2.73810620	      2.84311299	      2.56172110	      0.88990533	     -0.23238661	     -4.28629994	      3.22899111	      6.79589253	     -7.86486400	     16.67483764	     -3.50967843	      0.00000000	     29.41104448	      4.19735430	     -4.98314486	    -54.61470719	      5.59093190	     -8.19117475	      0.00000000	    -20.79222199	     -1.86578105	     -3.97086359
      7.41000000	      1.12192367	      2.83632746	      2.26678679	      2.57238733	      0.88904532	     -0.23231494	     -5.02484307	      3.07404488	      7.57700283	     -7.57901737	     16.98837696	     -3.74971209	      0.00000000	     29.34277670	      4.26968324	     -4.93696416	    -50.41175869	      5.75704510	     -8.96523694	      0.00000000	    -20.82383452	     -2.05665071	     -3.48553764
      7.42000000	      0.99427950	      2.88744502	      1.70044436	      2.58320042	      0.88806762	     -0.23229960	     -5.79615573	      2.94630233	      8.27159994	     -7.29001829	     17.30519101	     -3.89077422	      0.00000000	     29.06503547	      4.30474708	     -4.77707208	    -45.88854401	      5.71358508	     -9.72607402	      0.00000000	    -20.86354356	     -2.18157191	     -3.01372288
      7.43000000	      0.97023557	      2.91706936	      1.15259860	      2.59424805	      0.88710992	     -0.23228933	     -6.71505141	      2.82617691	      8.88115520	     -6.96116529	     17.56151472	     -3.99733170	      0.00000000	     28.47356711	      4.31871567	     -4.52188996	    -41.05440324	      5.50436195	    -10.37112491	      0.00000000	    -20.99295282	     -2.28538814	     -2.56178774
      7.44000000	      0.86580639	      2.82407094	      0.60457661	      2.60539869	      0.88581888	     -0.23235319	     -7.50959678	      2.81349024	      9.43668334	     -6.71857636	     17.89338914	     -3.94636868	      0.00000000	     27.82955916	      4.22146782	     -4.14240420	    -36.03004830	      5.11783284	    -11.07443260	      0.00000000	    -20.99802377	     -2.23129859	     -2.06789102
      7.45000000	      0.82785502	      2.68049194	      0.08217582	      2.61683405	      0.88446086	     -0.23239884	     -8.40267327	      2.84544183	      9.93245361	     -6.46708841	     18.15601909	     -3.88689165	      0.00000000	     26.96245847	      4.05868148	     -3.73167086	    -30.84839808	      4.65887840	    -11.56990524	      0.00000000	    -21.03417246	     -2.13350467	     -1.57082019
      7.46000000	      0.81310699	      2.45286528	     -0.42491453	      2.62850312	      0.88294530	     -0.23241692	     -9.32064872	      2.95979986	     10.41627044	     -6.25505019	     18.37701423	     -3.83403687	      0.00000000	     25.98339851	      3.78719779	     -3.36661942	    -25.65132417	      4.21269930	    -11.77473110	      0.00000000	    -21.05206309	     -1.94942336	     -1.05543366
      7.47000000	      0.83948976	      2.15615174	     -0.91085170	      2.64038219	      0.88133899	     -0.23242327	    -10.27925906	      3.13744925	     10.94625055	     -6.09610510	     18.53163847	     -3.78958535	      0.00000000	     24.92945522	      3.42255552	     -3.17961831	    -20.57264660	      3.83851189	    -11.49836842	      0.00000000	    -21.08977569	     -1.69760708	     -0.52402718
      7.48000000	      0.77161676	      1.73436446	     -1.44265675	      2.65236451	      0.87946564	     -0.23241837	    -11.05979396	      3.43122465	     11.50762694	     -6.11076804	     18.71287790	     -3.63429940	      0.00000000	     24.02225052	      2.90320030	     -3.36667318	    -15.78718285	      3.67871121	    -10.71537601	      0.00000000	    -20.99344099	     -1.30827492	      0.14042136
      7.49000000	      0.90982832	      1.40777770	     -1.90699108	      2.66471751	      0.87782900	     -0.23246260	    -12.10176295	      3.61581837	     12.09481385	     -6.11337217	     18.79116262	     -3.66626237	      0.00000000	     22.91735378	      2.52376226	     -4.04484680	    -11.35513350	      3.83848774	     -8.96367645	      0.00000000	    -21.10121706	     -1.04923930	      0.69057661
